{"title":"xXx.State.of.the.Union.-05.SWESUB.DVDRip.XviD.AC3.(5.1).-Zen_Bud","uid":5610721,"size":1471190704,"categoryP":"video","categoryS":"movies","magnet":"?xt=urn:btih:2096a2606eb381dc7a563154e75ad790a6d2e84e&amp;dn=xXx.State.of.the.Union.-05.SWESUB.DVDRip.XviD.AC3.%285.1%29.-Zen_Bud&amp;tr=udp%3A%2F%2Ftracker.openbittorrent.com%3A80&amp;tr=udp%3A%2F%2Fopen.demonii.com%3A1337&amp;tr=udp%3A%2F%2Ftracker.coppersurfer.tk%3A6969&amp;tr=udp%3A%2F%2Fexodus.desync.com%3A6969","seeders":1,"leechers":0,"uploader":"Zen_Bud","files":-1,"time":1275853381,"description":"General\nComplete name                    : xXx.State.of.the.Union.avi\nFormat                           : AVI\nFile size                        : 1.37 GiB\nDuration                         : 1h 36mn\nOverall bit rate                 : 2 026 Kbps\n\nVideo\nID                               : 0\nFormat                           : MPEG-4 Visual\nCodec ID/Hint                    : XviD\nDuration                         : 1h 36mn\nBit rate                         : 1 567 Kbps\nWidth                            : 720 pixels\nHeight                           : 488 pixels\nDisplay aspect ratio             : 2.098\nChroma subsampling               : 4:2:0\nBit depth                        : 8 bits\nScan type                        : Progressive\nBits/(Pixel*Frame)               : 0.178\nStream size                      : 1.06 GiB (77%)\nWriting library                  : XviD 1.1.2 (UTC 2006-11-01)\n\nAudio\nID                               : 1\nFormat                           : AC-3\nDuration                         : 1h 36mn\nBit rate                         : 448 Kbps\nChannel(s)                       : 6 channels\nChannel positions                : Front: L C R, Side: L R, LFE\nSampling rate                    : 48.0 KHz\nStream size                      : 310 MiB (22%)\n\n\n","torrent":{"xt":"urn:btih:2096a2606eb381dc7a563154e75ad790a6d2e84e","amp;dn":"xXx.State.of.the.Union.-05.SWESUB.DVDRip.XviD.AC3.%285.1%29.-Zen_Bud","amp;tr":["udp%3A%2F%2Ftracker.openbittorrent.com%3A80","udp%3A%2F%2Fopen.demonii.com%3A1337","udp%3A%2F%2Ftracker.coppersurfer.tk%3A6969","udp%3A%2F%2Fexodus.desync.com%3A6969"],"infoHash":"2096a2606eb381dc7a563154e75ad790a6d2e84e","infoHashBuffer":{"type":"Buffer","data":[32,150,162,96,110,179,129,220,122,86,49,84,231,90,215,144,166,210,232,78]},"announce":[],"urlList":[]}}